<?xml version="1.0" encoding="utf-8"?>
<!-- Generator: Adobe Illustrator 27.5.0, SVG Export Plug-In . SVG Version: 6.00 Build 0)  -->
<svg version="1.1" xmlns="http://www.w3.org/2000/svg" xmlns:xlink="http://www.w3.org/1999/xlink" x="0px" y="0px"
	 viewBox="0 0 1500 500" style="enable-background:new 0 0 1500 500;" xml:space="preserve">
<g id="BACKGROUND">
	<rect y="0" style="fill:#F7E4D6;" width="1500" height="500"/>
</g>
<g id="OBJECTS">
	<g>
		<defs>
			<rect id="SVGID_1_" y="0" width="1500" height="500"/>
		</defs>
		<clipPath id="SVGID_00000001661271119286459740000012707448740755816603_">
			<use xlink:href="#SVGID_1_"  style="overflow:visible;"/>
		</clipPath>
		<g style="clip-path:url(#SVGID_00000001661271119286459740000012707448740755816603_);">
			<g>
				<path style="fill:none;stroke:#EAD0C1;stroke-width:3.1725;stroke-miterlimit:10;" d="M-15.995-12.524
					c0,0,107.865,118.261,134.831,263.756c26.966,145.495,126.9,155.012,188.763,77.286s189.054-150.001,320.942-115.362
					c131.888,34.639,347.563-33.745,232.212-244.716"/>
				<path style="fill:none;stroke:#EAD0C1;stroke-width:3.1725;stroke-miterlimit:10;" d="M743.951,531.558
					c0,0-9.043-79.644,56.604-133.609c65.648-53.964,69.634-118.604,13.585-118.604c-56.048,0-37.485,120.416,59.512,69.726
					c96.997-50.691,346.037-88.76,288.932,182.487"/>
			</g>
			<g>
				<path style="fill:#EAD0C1;" d="M-14.462,175.089C106.3,127.144,77.106,336.393,117.984,385.249
					c32.809,39.212,113.153,24.992,124.697,84.564c11.239,58.004-65.783,105.994-116.279,97.711
					c-69.575-11.417-144.449-40.706-188.004-98.92c-33.956-45.386-41.17-106.298-31.915-160.973
					C-85.383,259.569-63.973,194.746-14.462,175.089z"/>
				<path style="fill:#EAD0C1;" d="M1569.046,300.969c-119.968,114.072-184.908-147.16-256.451-185.485
					c-57.421-30.76-145.639,24.235-187.598-40.699c-40.854-63.226,27.386-156.563,91.016-170.771
					c87.672-19.571,190.103-20.534,269.258,27.581c61.711,37.513,99.189,106.09,114.234,175.121
					C1612.731,167.396,1618.231,254.201,1569.046,300.969z"/>
				<g>
					<g>
						<g>
							<path style="fill:#B56E52;" d="M240.325,242.775C138.735,244.638,68.757,138.719,107.84,44.929
								c31.003-74.4,104.128-149.763,273.192-149.599C654.474-104.405,468.92,238.582,240.325,242.775z"/>
							<g>
								<g>
									<path style="fill:#093631;" d="M409.516,113.346c-8.251-1.675-15.324-8.051-17.935-20.474
										c-2.906-13.829,3.816-25.539,14.396-34.174C453.988,19.51,463.239,124.247,409.516,113.346z"/>
									<path style="fill:#093631;" d="M543.514,31.917c-8.251-1.675-15.324-8.051-17.935-20.474
										c-2.906-13.829,3.816-25.539,14.396-34.174C587.986-61.918,597.236,42.819,543.514,31.917z"/>
									<path style="fill:#093631;" d="M459.747,45.269c-4.086-0.829-7.589-3.987-8.882-10.139
										c-1.439-6.848,1.89-12.647,7.129-16.923C481.77-1.199,486.351,50.668,459.747,45.269z"/>
									<path style="fill:#093631;" d="M465.842,106.479c-0.703-4.109,0.975-8.517,6.244-11.945
										c5.865-3.816,12.475-2.808,18.356,0.532C517.128,110.222,470.422,133.236,465.842,106.479z"/>
									<path style="fill:#093631;" d="M535.621,86.761c-4.086-0.829-7.589-3.987-8.881-10.139
										c-1.439-6.848,1.89-12.647,7.129-16.924C557.644,40.294,562.225,92.16,535.621,86.761z"/>
									<path style="fill:#093631;" d="M483.912,73.122c-2.396-0.486-4.45-2.338-5.208-5.945c-0.844-4.016,1.108-7.416,4.18-9.924
										C496.826,45.874,499.513,76.288,483.912,73.122z"/>
									<path style="fill:#093631;" d="M509.854,35.398c-1.322-0.268-2.455-1.29-2.874-3.28c-0.466-2.216,0.611-4.092,2.307-5.476
										C516.979,20.363,518.461,37.145,509.854,35.398z"/>
									<path style="fill:#093631;" d="M465.199-4.901c-1.322-0.268-2.455-1.29-2.874-3.28c-0.465-2.216,0.611-4.092,2.307-5.476
										C472.325-19.936,473.807-3.155,465.199-4.901z"/>
									<path style="fill:#093631;" d="M425.602,35.078c-1.322-0.268-2.455-1.29-2.874-3.28c-0.465-2.216,0.611-4.092,2.307-5.476
										C432.728,20.044,434.21,36.825,425.602,35.078z"/>
									<path style="fill:#093631;" d="M520.44,120.666c-1.322-0.268-2.455-1.29-2.874-3.28c-0.466-2.216,0.611-4.092,2.307-5.476
										C527.566,105.631,529.048,122.413,520.44,120.666z"/>
									<path style="fill:#093631;" d="M444.394,133.832c-1.322-0.268-2.455-1.29-2.874-3.28c-0.466-2.216,0.611-4.092,2.307-5.476
										C451.52,118.797,453.002,135.579,444.394,133.832z"/>
									<path style="fill:#093631;" d="M495.973-5.779c-2.396-0.486-4.45-2.338-5.208-5.945c-0.844-4.016,1.108-7.416,4.18-9.924
										C508.887-33.027,511.573-2.613,495.973-5.779z"/>
								</g>
							</g>
							<g>
								<path style="fill:none;stroke:#093631;stroke-width:1.5862;stroke-miterlimit:10;" d="M93.006-61.913
									c24.941-7.597,57.355-14.302,82.749-2.2c30.711,14.637,49.123,43.426,70.211,68.688
									c18.18,21.779,34.792,35.82,62.795,41.934c12.431,2.714,25.815,6.815,32.876,17.402c10.942,16.408,3.958,40.489-2.404,57.22
									c-14.897,39.175-50.922,54.218-84.19,74.522c-51.354,31.342-41.654,105.67-96.038,132.432
									c-31.419,15.46-94.111,30.065-116.328-7.624c-10.412-17.663-2.189-36.823-4.245-55.871
									c-2.594-24.033-13.457-48.935-28.85-67.439c-21.48-25.821-60.363-24.77-86.172-44.989
									c-38.265-29.98-1.971-86.06,19.763-114.228C-21.98-7.227,27.086-40.488,81.119-58.14
									C84.984-59.403,88.954-60.679,93.006-61.913z"/>
								<path style="fill:none;stroke:#093631;stroke-width:1.5862;stroke-miterlimit:10;" d="M304.773,74.06
									c9.218,13.823,3.335,34.109-2.025,48.204c-12.55,33.002-42.899,45.675-70.924,62.78
									c-43.262,26.403-35.091,89.02-80.906,111.565c-26.468,13.024-79.282,25.328-97.998-6.422
									c-8.771-14.88-1.844-31.021-3.576-47.068c-2.185-20.247-11.337-41.225-24.305-56.813
									c-18.095-21.752-50.851-20.867-72.594-37.9c-32.236-25.256-1.661-72.5,16.649-96.23
									C-1.551,14.131,39.784-13.889,85.304-28.76c3.255-1.063,6.6-2.139,10.013-3.179c21.011-6.4,48.318-12.049,69.711-1.853
									c25.872,12.33,41.383,36.583,59.148,57.865c15.315,18.347,29.31,30.176,52.901,35.327
									C287.549,61.687,298.824,65.141,304.773,74.06z"/>
								<path style="fill:none;stroke:#093631;stroke-width:1.5862;stroke-miterlimit:10;" d="M267.908,84.209
									c7.494,11.237,2.711,27.729-1.646,39.188c-10.203,26.829-34.875,37.132-57.659,51.037
									c-35.171,21.465-28.527,72.37-65.773,90.698c-21.518,10.588-64.454,20.591-79.669-5.221
									c-7.131-12.097-1.499-25.219-2.907-38.264c-1.776-16.46-9.216-33.514-19.759-46.187
									c-14.711-17.684-41.34-16.964-59.016-30.811c-26.206-20.532-1.35-58.94,13.535-78.231
									C18.879,35.488,52.482,12.709,89.489,0.62c2.646-0.865,5.366-1.739,8.14-2.584c17.081-5.203,39.28-9.795,56.672-1.507
									c21.033,10.024,33.643,29.741,48.085,47.042c12.451,14.915,23.828,24.532,43.006,28.719
									C253.906,74.15,263.073,76.958,267.908,84.209z"/>
								<path style="fill:none;stroke:#093631;stroke-width:1.5862;stroke-miterlimit:10;" d="M231.044,94.357
									c5.77,8.652,2.087,21.35-1.268,30.172c-7.855,20.657-26.851,28.589-44.393,39.295
									c-27.079,16.526-21.964,55.72-50.641,69.831c-16.567,8.152-49.625,15.853-61.34-4.02c-5.49-9.313-1.154-19.417-2.238-29.461
									c-1.368-12.673-7.096-25.804-15.213-35.561c-11.326-13.615-31.829-13.061-45.439-23.723
									c-20.177-15.808-1.039-45.38,10.421-60.233C39.308,56.846,65.181,39.308,93.673,30c2.038-0.666,4.131-1.339,6.268-1.99
									c13.151-4.006,30.243-7.542,43.634-1.16c16.194,7.718,25.903,22.899,37.022,36.219
									c9.586,11.484,18.346,18.888,33.112,22.112C220.264,86.613,227.321,88.775,231.044,94.357z"/>
								<path style="fill:none;stroke:#093631;stroke-width:1.5862;stroke-miterlimit:10;" d="M102.252,57.984
									c9.222-2.809,21.206-5.288,30.595-0.813c11.355,5.412,18.163,16.056,25.96,25.396c6.722,8.052,12.864,13.244,23.218,15.505
									c4.596,1.004,9.545,2.52,12.155,6.434c4.046,6.067,1.464,14.97-0.889,21.156c-5.508,14.484-18.828,20.046-31.128,27.553
									c-18.987,11.588-15.401,39.07-35.509,48.965c-11.617,5.716-34.796,11.116-43.011-2.819c-3.85-6.53-0.809-13.615-1.57-20.658
									c-0.959-8.886-4.976-18.093-10.667-24.935c-7.942-9.547-22.318-9.158-31.861-16.634
									c-14.148-11.085-0.729-31.82,7.307-42.234C59.738,78.204,77.879,65.906,97.857,59.38
									C99.286,58.913,100.754,58.441,102.252,57.984z"/>
							</g>
						</g>
						<g>
							<path style="fill:#D6A034;" d="M556.738,257.225c101.59-1.863,171.568,104.056,132.485,197.846
								c-31.003,74.4-104.128,149.763-273.193,149.599C142.589,604.404,328.143,261.418,556.738,257.225z"/>
							<g>
								<g>
									<path style="fill:#093631;" d="M387.547,386.654c8.251,1.675,15.324,8.051,17.935,20.474
										c2.906,13.829-3.816,25.539-14.396,34.174C343.074,480.49,333.824,375.753,387.547,386.654z"/>
									<path style="fill:#093631;" d="M253.549,468.083c8.251,1.675,15.324,8.051,17.935,20.474
										c2.906,13.829-3.816,25.539-14.396,34.174C209.077,561.918,199.827,457.181,253.549,468.083z"/>
									<path style="fill:#093631;" d="M337.315,454.731c4.086,0.829,7.589,3.987,8.882,10.139
										c1.439,6.848-1.89,12.647-7.129,16.923C315.292,501.199,310.712,449.332,337.315,454.731z"/>
									<path style="fill:#093631;" d="M331.221,393.521c0.703,4.109-0.975,8.516-6.244,11.945
										c-5.865,3.816-12.475,2.808-18.356-0.532C279.935,389.778,326.641,366.764,331.221,393.521z"/>
									<path style="fill:#093631;" d="M261.441,413.238c4.086,0.829,7.589,3.987,8.882,10.139
										c1.439,6.848-1.89,12.647-7.129,16.923C239.419,459.706,234.838,407.84,261.441,413.238z"/>
									<path style="fill:#093631;" d="M313.15,426.878c2.396,0.486,4.45,2.338,5.208,5.945c0.844,4.016-1.108,7.416-4.18,9.924
										C300.236,454.126,297.55,423.712,313.15,426.878z"/>
									<path style="fill:#093631;" d="M287.209,464.602c1.322,0.268,2.455,1.29,2.874,3.28c0.466,2.216-0.611,4.092-2.307,5.476
										C280.083,479.637,278.601,462.855,287.209,464.602z"/>
									<path style="fill:#093631;" d="M331.864,504.901c1.322,0.268,2.455,1.29,2.874,3.28c0.466,2.216-0.611,4.092-2.307,5.476
										C324.738,519.936,323.256,503.155,331.864,504.901z"/>
									<path style="fill:#093631;" d="M371.461,464.922c1.322,0.268,2.455,1.29,2.874,3.28c0.466,2.216-0.611,4.092-2.307,5.476
										C364.335,479.956,362.853,463.175,371.461,464.922z"/>
									<path style="fill:#093631;" d="M276.623,379.334c1.322,0.268,2.455,1.29,2.874,3.28c0.465,2.216-0.611,4.092-2.307,5.476
										C269.497,394.369,268.015,377.587,276.623,379.334z"/>
									<path style="fill:#093631;" d="M352.669,366.168c1.322,0.268,2.455,1.29,2.874,3.28c0.466,2.216-0.611,4.092-2.307,5.476
										C345.543,381.203,344.061,364.422,352.669,366.168z"/>
									<path style="fill:#093631;" d="M301.09,505.779c2.396,0.486,4.45,2.338,5.208,5.945c0.844,4.016-1.108,7.416-4.18,9.924
										C288.176,533.027,285.489,502.613,301.09,505.779z"/>
								</g>
							</g>
							<g>
								<path style="fill:none;stroke:#093631;stroke-width:1.5862;stroke-miterlimit:10;" d="M704.057,561.913
									c-24.941,7.597-57.355,14.302-82.749,2.2c-30.711-14.637-49.123-43.426-70.211-68.688
									c-18.18-21.779-34.792-35.82-62.795-41.934c-12.431-2.714-25.815-6.815-32.876-17.402
									c-10.943-16.408-3.959-40.489,2.404-57.22c14.897-39.175,50.922-54.218,84.19-74.522
									c51.354-31.342,41.654-105.67,96.038-132.432c31.419-15.46,94.111-30.065,116.328,7.624
									c10.412,17.663,2.189,36.823,4.245,55.871c2.594,24.033,13.457,48.935,28.85,67.439
									c21.48,25.821,60.362,24.77,86.172,44.989c38.265,29.98,1.971,86.06-19.763,114.228
									c-34.846,45.161-83.912,78.422-137.946,96.074C712.079,559.403,708.108,560.679,704.057,561.913z"/>
								<path style="fill:none;stroke:#093631;stroke-width:1.5862;stroke-miterlimit:10;" d="M492.29,425.94
									c-9.218-13.823-3.335-34.109,2.025-48.204c12.55-33.002,42.898-45.675,70.924-62.78
									c43.262-26.403,35.091-89.02,80.906-111.565c26.468-13.024,79.282-25.328,97.998,6.422
									c8.771,14.88,1.844,31.021,3.576,47.068c2.185,20.246,11.337,41.225,24.304,56.813c18.096,21.752,50.852,20.867,72.594,37.9
									c32.236,25.256,1.661,72.5-16.649,96.23c-29.356,38.045-70.691,66.065-116.21,80.936c-3.255,1.063-6.601,2.139-10.013,3.178
									c-21.011,6.4-48.318,12.049-69.711,1.853c-25.872-12.33-41.383-36.583-59.148-57.865
									c-15.315-18.347-29.31-30.176-52.901-35.327C509.514,438.314,498.238,434.859,492.29,425.94z"/>
								<path style="fill:none;stroke:#093631;stroke-width:1.5862;stroke-miterlimit:10;" d="M529.154,415.792
									c-7.494-11.237-2.711-27.729,1.646-39.188c10.203-26.829,34.875-37.132,57.659-51.038
									c35.171-21.465,28.527-72.37,65.773-90.698c21.518-10.588,64.454-20.591,79.669,5.221
									c7.131,12.097,1.499,25.219,2.907,38.264c1.776,16.46,9.216,33.514,19.759,46.187c14.711,17.684,41.34,16.964,59.016,30.812
									c26.206,20.532,1.35,58.94-13.535,78.231c-23.865,30.929-57.469,53.708-94.475,65.798c-2.646,0.865-5.366,1.739-8.141,2.584
									c-17.081,5.203-39.28,9.795-56.672,1.507c-21.033-10.024-33.643-29.741-48.085-47.042
									c-12.451-14.915-23.828-24.532-43.006-28.719C543.156,425.85,533.99,423.042,529.154,415.792z"/>
								<path style="fill:none;stroke:#093631;stroke-width:1.5862;stroke-miterlimit:10;" d="M566.019,405.643
									c-5.77-8.652-2.087-21.35,1.268-30.172c7.855-20.657,26.851-28.589,44.393-39.295c27.079-16.527,21.964-55.72,50.641-69.831
									c16.567-8.152,49.625-15.853,61.34,4.02c5.49,9.314,1.155,19.417,2.239,29.461c1.368,12.673,7.096,25.804,15.213,35.561
									c11.327,13.615,31.829,13.061,45.439,23.723c20.177,15.808,1.039,45.38-10.421,60.233
									c-18.375,23.813-44.247,41.352-72.739,50.66c-2.038,0.666-4.131,1.339-6.268,1.99c-13.151,4.006-30.243,7.542-43.634,1.16
									c-16.194-7.718-25.903-22.899-37.023-36.22c-9.586-11.484-18.346-18.888-33.112-22.112
									C576.799,413.387,569.742,411.225,566.019,405.643z"/>
								<path style="fill:none;stroke:#093631;stroke-width:1.5862;stroke-miterlimit:10;" d="M694.811,442.016
									c-9.221,2.809-21.206,5.288-30.595,0.813c-11.355-5.412-18.163-16.056-25.96-25.396
									c-6.722-8.052-12.864-13.244-23.218-15.505c-4.596-1.003-9.545-2.52-12.155-6.434c-4.046-6.067-1.464-14.97,0.889-21.156
									c5.508-14.484,18.828-20.046,31.128-27.553c18.987-11.588,15.401-39.07,35.509-48.965
									c11.617-5.716,34.796-11.116,43.01,2.819c3.85,6.53,0.81,13.615,1.57,20.658c0.959,8.886,4.976,18.093,10.667,24.935
									c7.942,9.547,22.318,9.158,31.861,16.634c14.148,11.085,0.729,31.82-7.307,42.234
									c-12.884,16.698-31.025,28.995-51.004,35.522C697.777,441.087,696.309,441.559,694.811,442.016z"/>
							</g>
						</g>
					</g>
					<g>
						<g>
							<path style="fill:#093631;" d="M3.99,334.334c57.802,0.516-9.104,169.022-9.104,169.022S-44.078,333.905,3.99,334.334"/>
							<path style="fill:#093631;" d="M93.799,365.997c48.376,31.64-98.912,137.359-98.912,137.359S53.569,339.685,93.799,365.997"
								/>
							<path style="fill:#093631;" d="M152.301,441.133c23.639,52.75-157.415,62.223-157.415,62.223
								S132.643,397.266,152.301,441.133"/>
							<path style="fill:#093631;" d="M160.983,535.962c-8.579,57.164-166.097-32.606-166.097-32.606
								S168.117,488.425,160.983,535.962"/>
						</g>
						<g>
							<path style="fill:#093631;" d="M884.259,485.617c10.368-56.867,164.992,37.801,164.992,37.801
								S875.637,532.908,884.259,485.617"/>
							<path style="fill:#093631;" d="M930.776,402.526c39.428-42.271,118.475,120.892,118.475,120.892
								S897.988,437.678,930.776,402.526"/>
							<path style="fill:#093631;" d="M1014.79,357.696c56.009-14.296,34.461,165.722,34.461,165.722
								S968.213,369.584,1014.79,357.696"/>
							<path style="fill:#093631;" d="M1109.711,365.317c54.863,18.204-60.459,158.101-60.459,158.101
								S1064.086,350.179,1109.711,365.317"/>
						</g>
						<g>
							<path style="fill:#093631;" d="M843.554,119.748c-47.748,32.581-89.037-143.957-89.037-143.957
								S883.261,92.654,843.554,119.748"/>
							<path style="fill:#093631;" d="M751.747,145.036c-57.781,1.648,2.77-169.244,2.77-169.244S799.797,143.665,751.747,145.036"
								/>
							<path style="fill:#093631;" d="M660.816,116.758c-49.527-29.807,93.7-140.966,93.7-140.966S702.003,141.545,660.816,116.758"
								/>
							<path style="fill:#093631;" d="M599.542,43.864C573.944-7.963,754.517-24.209,754.517-24.209S620.829,86.964,599.542,43.864"
								/>
						</g>
					</g>
				</g>
			</g>
		</g>
	</g>
</g>
<g id="TEXTS">
	<g>
		<g>
			<g>
				<path style="fill-rule:evenodd;clip-rule:evenodd;fill:#093631;" d="M1345.27,426.627c0,7.901-6.405,14.305-14.305,14.305
					c-7.9,0-14.305-6.404-14.305-14.305c0-7.9,6.404-14.304,14.305-14.304C1338.865,412.323,1345.27,418.726,1345.27,426.627z"/>
				<g>
					<g>
						<path style="fill:#F7E4D6;" d="M1334.736,435.383h-7.543c-2.748,0-4.984-2.236-4.984-4.984v-7.543
							c0-2.748,2.236-4.984,4.984-4.984h7.543c2.748,0,4.984,2.236,4.984,4.984v7.543
							C1339.72,433.147,1337.485,435.383,1334.736,435.383z M1327.193,419.372c-1.92,0-3.483,1.562-3.483,3.483v7.543
							c0,1.92,1.563,3.483,3.483,3.483h7.543c1.921,0,3.483-1.562,3.483-3.483v-7.543c0-1.921-1.563-3.483-3.483-3.483H1327.193z"/>
					</g>
					<g>
						<path style="fill:#F7E4D6;" d="M1330.965,431.111c-2.473,0-4.484-2.011-4.484-4.484c0-2.472,2.011-4.483,4.484-4.483
							c2.472,0,4.484,2.012,4.484,4.483C1335.449,429.1,1333.437,431.111,1330.965,431.111z M1330.965,423.644
							c-1.644,0-2.983,1.338-2.983,2.982c0,1.645,1.338,2.983,2.983,2.983c1.645,0,2.983-1.338,2.983-2.983
							C1333.948,424.982,1332.61,423.644,1330.965,423.644z"/>
					</g>
				</g>
			</g>
			<g>
				
					<ellipse transform="matrix(0.0416 -0.9991 0.9991 0.0416 895.5774 1786.7375)" style="fill-rule:evenodd;clip-rule:evenodd;fill:#093631;" cx="1379.089" cy="426.567" rx="14.305" ry="14.305"/>
				<path style="fill-rule:evenodd;clip-rule:evenodd;fill:#F7E4D6;" d="M1380.241,423.471v-1.243c0-0.596,0.401-0.738,0.687-0.738
					c0.272,0,1.735,0,1.735,0v-2.655h-2.396c-2.655,0-3.251,1.969-3.251,3.239v1.399h-1.542v1.865v1.231h1.555
					c0,3.511,0,7.733,0,7.733h3.096c0,0,0-4.275,0-7.733h2.293l0.104-1.217l0.181-1.878H1380.241z"/>
			</g>
			<g>
				<path style="fill-rule:evenodd;clip-rule:evenodd;fill:#093631;" d="M1415.471,418.336c4.513-6.485,13.428-8.083,19.912-3.57
					c6.485,4.513,8.083,13.428,3.57,19.913c-4.513,6.484-13.428,8.082-19.913,3.57
					C1412.557,433.736,1410.959,424.821,1415.471,418.336z"/>
				<path style="fill:#F7E4D6;" d="M1432.053,415.942h-9.676c-0.6,0-1.09,0.484-1.09,1.084v18.957c0,0.604,0.49,1.09,1.09,1.09
					h9.676c0.603,0,1.084-0.486,1.084-1.09v-18.957C1433.138,416.427,1432.656,415.942,1432.053,415.942z M1427.146,436.518
					c-0.621,0-1.125-0.506-1.125-1.129c0-0.623,0.504-1.122,1.125-1.122c0.625,0,1.127,0.499,1.127,1.122
					C1428.273,436.012,1427.771,436.518,1427.146,436.518z M1431.837,432.804c0,0.47-0.378,0.851-0.852,0.851h-7.542
					c-0.472,0-0.847-0.38-0.847-0.851v-14.778c0-0.468,0.375-0.851,0.847-0.851h7.542c0.474,0,0.852,0.383,0.852,0.851V432.804z"/>
			</g>
		</g>
		<g>
			<g>
				
					<text transform="matrix(1 0 0 1 1170.1182 325.7148)" style="fill:#093631; font-family:'Quicksand-Regular'; font-size:113.9638px;">SALE</text>
			</g>
			<g>
				<text transform="matrix(1 0 0 1 1012.4307 228.8955)" style="fill:#B56E52; font-family:'Aleo-Bold'; font-size:102.7644px;">FASHION</text>
			</g>
			<g>
				
					<text transform="matrix(1 0 0 1 1007.8154 129.0601)" style="fill:#093631; font-family:'Quicksand-Regular'; font-size:51.5859px;">WEEKEND OFFER</text>
			</g>
		</g>
	</g>
</g>
</svg>
